<svg id="visual" viewBox="0 0 1920 1080" width="1920" height="1080" xmlns="http://www.w3.org/2000/svg" xmlns:xlink="http://www.w3.org/1999/xlink" version="1.1"><path d="M0 680L45.7 679C91.3 678 182.7 676 274.2 664C365.7 652 457.3 630 548.8 608.7C640.3 587.3 731.7 566.7 823 575.7C914.3 584.7 1005.7 623.3 1097 638.3C1188.3 653.3 1279.7 644.7 1371.2 651.3C1462.7 658 1554.3 680 1645.8 677.3C1737.3 674.7 1828.7 647.3 1874.3 633.7L1920 620L1920 1081L1874.3 1081C1828.7 1081 1737.3 1081 1645.8 1081C1554.3 1081 1462.7 1081 1371.2 1081C1279.7 1081 1188.3 1081 1097 1081C1005.7 1081 914.3 1081 823 1081C731.7 1081 640.3 1081 548.8 1081C457.3 1081 365.7 1081 274.2 1081C182.7 1081 91.3 1081 45.7 1081L0 1081Z" fill="#ffe000"></path><path d="M0 804L45.7 796.7C91.3 789.3 182.7 774.7 274.2 768.7C365.7 762.7 457.3 765.3 548.8 775.8C640.3 786.3 731.7 804.7 823 798C914.3 791.3 1005.7 759.7 1097 740.8C1188.3 722 1279.7 716 1371.2 723.2C1462.7 730.3 1554.3 750.7 1645.8 760.8C1737.3 771 1828.7 771 1874.3 771L1920 771L1920 1081L1874.3 1081C1828.7 1081 1737.3 1081 1645.8 1081C1554.3 1081 1462.7 1081 1371.2 1081C1279.7 1081 1188.3 1081 1097 1081C1005.7 1081 914.3 1081 823 1081C731.7 1081 640.3 1081 548.8 1081C457.3 1081 365.7 1081 274.2 1081C182.7 1081 91.3 1081 45.7 1081L0 1081Z" fill="#ffab00"></path><path d="M0 804L45.7 811.2C91.3 818.3 182.7 832.7 274.2 833C365.7 833.3 457.3 819.7 548.8 830.8C640.3 842 731.7 878 823 886C914.3 894 1005.7 874 1097 872C1188.3 870 1279.7 886 1371.2 891.8C1462.7 897.7 1554.3 893.3 1645.8 885.2C1737.3 877 1828.7 865 1874.3 859L1920 853L1920 1081L1874.3 1081C1828.7 1081 1737.3 1081 1645.8 1081C1554.3 1081 1462.7 1081 1371.2 1081C1279.7 1081 1188.3 1081 1097 1081C1005.7 1081 914.3 1081 823 1081C731.7 1081 640.3 1081 548.8 1081C457.3 1081 365.7 1081 274.2 1081C182.7 1081 91.3 1081 45.7 1081L0 1081Z" fill="#ff7400"></path><path d="M0 988L45.7 976.5C91.3 965 182.7 942 274.2 935.8C365.7 929.7 457.3 940.3 548.8 946.3C640.3 952.3 731.7 953.7 823 946.8C914.3 940 1005.7 925 1097 914.2C1188.3 903.3 1279.7 896.7 1371.2 900.7C1462.7 904.7 1554.3 919.3 1645.8 927.8C1737.3 936.3 1828.7 938.7 1874.3 939.8L1920 941L1920 1081L1874.3 1081C1828.7 1081 1737.3 1081 1645.8 1081C1554.3 1081 1462.7 1081 1371.2 1081C1279.7 1081 1188.3 1081 1097 1081C1005.7 1081 914.3 1081 823 1081C731.7 1081 640.3 1081 548.8 1081C457.3 1081 365.7 1081 274.2 1081C182.7 1081 91.3 1081 45.7 1081L0 1081Z" fill="#ff1100"></path></svg>