<svg version="1.2" xmlns="http://www.w3.org/2000/svg" viewBox="0 0 400 63" width="400" height="63"><style>.a{fill:#fff}</style><path class="a" d="m64.5 58h-23.2v-6.3h22.4q2.5 0 4.4-1.2 1.8-1.3 2.9-3.2 1-1.9 1-4.1 0-2.2-1-4.1-1-1.9-2.8-3-1.8-1.2-4.4-1.2h-9.7q-4.4 0-7.7-1.8-3.3-1.9-5.3-5.1-1.8-3.2-1.8-7.3 0-4.2 1.8-7.6 1.8-3.3 5.1-5.2 3.3-2 7.6-2h21.9v6.4h-21.3q-2.4 0-4.3 1.1-1.8 1.2-2.8 3-0.9 1.8-0.9 3.9 0 2 0.9 3.9 0.9 1.7 2.7 2.9 1.8 1.1 4.2 1.1h10q4.6 0 7.9 1.8 3.4 1.9 5.1 5.1 1.8 3.2 1.8 7.3 0 4.5-1.8 8.1-1.8 3.5-5.1 5.5-3.4 2-7.6 2zm29.9 0h-6.8v-54.3h6.8v21.3q2.2-3 5.5-4.4 3.3-1.4 6.8-1.4 5.1 0 8.8 2.1 3.6 2.1 5.7 5.9 2.1 3.8 2.1 8.9v21.9h-6.8v-21.9q0-3.4-1.6-5.8-1.5-2.6-4.1-3.9-2.5-1.4-5.4-1.4-2.9 0-5.4 1.4-2.5 1.3-4.1 3.7-1.5 2.5-1.5 5.9zm55.3 0.9q-5.5 0-9.5-2.6-3.9-2.7-6.1-7.2-2.1-4.6-2.1-10.1 0-5.6 2.3-10 2.4-4.6 6.8-7.2 4.5-2.6 10.7-2.6 5.9 0 10.2 2.6 4.3 2.6 6.6 7 2.3 4.5 2.3 10v19.2h-6.8v-7.8h-0.2q-1.1 2.2-3 4.2-1.8 1.9-4.6 3.2-2.8 1.3-6.6 1.3zm1.8-5.9q3.7 0 6.5-1.8 2.8-1.8 4.4-5 1.6-3.3 1.6-7.3 0-4-1.5-7.1-1.5-3.1-4.3-4.9-2.8-1.9-6.6-1.9-4 0-6.8 1.9-2.9 1.9-4.4 5-1.5 3.2-1.5 7.2 0 3.9 1.5 7.1 1.5 3.1 4.3 4.9 2.8 1.9 6.8 1.9zm47.6 5.9q-4.3 0-7.9-1.4-3.5-1.4-6.1-4.1-2.6-2.6-4-6.4-1.4-3.7-1.4-8.4 0-6 2.3-10.3 2.5-4.4 6.6-6.8 4.2-2.3 9.4-2.3 2.8 0 5.4 0.9 2.7 1 4.7 2.7 2.1 1.7 3.3 4h0.1v-23.1h6.8v35.1q0 6.3-2.6 10.9-2.5 4.4-6.8 6.8-4.3 2.4-9.8 2.4zm0-5.9q3.4 0 6.2-1.7 2.8-1.7 4.5-4.8 1.7-3.2 1.7-7.4 0-4.3-1.7-7.4-1.7-3.2-4.5-5-2.8-1.7-6.3-1.7-3.5 0-6.4 1.8-2.8 1.8-4.5 4.9-1.6 3.1-1.6 7.3 0 4.3 1.7 7.5 1.7 3.1 4.5 4.8 2.9 1.7 6.4 1.7zm47.5 5.9q-5.8 0-10.2-2.6-4.4-2.7-7-7.2-2.6-4.5-2.6-10.1 0-5.6 2.6-10 2.6-4.6 7-7.2 4.4-2.6 10.2-2.6 5.7 0 10.2 2.6 4.5 2.6 7 7.1 2.6 4.5 2.6 10.1 0 5.6-2.6 10.1-2.5 4.5-7 7.2-4.5 2.6-10.2 2.6zm0-5.9q3.9 0 6.8-1.9 2.9-1.8 4.5-4.9 1.6-3.2 1.6-7.2 0-3.9-1.6-7.1-1.6-3.1-4.5-5-2.9-1.9-6.8-1.9-3.9 0-6.8 1.9-2.9 1.9-4.5 5-1.6 3.2-1.6 7.1 0 4 1.6 7.2 1.6 3.1 4.5 4.9 2.9 1.9 6.8 1.9zm37.5 5h-6.8v-32.1h-6.6v-5.9h6.6v-5.5q0-5.1 2.8-7.9 2.9-2.9 7.9-2.9h9.3v5.9h-8q-2.5 0-3.8 1.4-1.4 1.4-1.4 3.9v5.1h11.7v5.9h-11.7zm45 0h-9.7q-6.2 0-11-2.3-4.8-2.4-7.5-6.6-2.7-4.3-2.7-10 0-5.7 2.3-10.2 2.3-4.5 6.4-7.1 4-2.6 9.4-2.6 5.8 0 9.7 2.5 3.9 2.6 5.8 6.9 1.9 4.2 1.9 9.5 0 0.8 0 1.7 0 0.9-0.2 1.6h-28q0.3 3.5 2.3 5.9 1.9 2.4 4.8 3.7 3.1 1.1 6.7 1.1h9.8zm-23.7-21.4h21.5q0-1.5-0.3-3-0.3-1.7-1.1-3.1-0.7-1.6-2-2.8-1.1-1.3-3-2-1.7-0.8-4.2-0.8-2.6 0-4.6 1.1-1.9 1-3.3 2.7-1.4 1.6-2.1 3.7-0.8 2.1-0.9 4.2zm43.5 21.4h-6.8v-27.1q0-5.1 2.8-7.9 2.9-2.9 7.9-2.9h7.8v5.9h-6.5q-2.4 0-3.8 1.4-1.4 1.4-1.4 3.9z"/></svg>